<svg xmlns="http://www.w3.org/2000/svg" viewBox="0 0 150 47.81"><defs><style>.cls-1{fill:#ff0c18;}.cls-2{fill:#f2f2f2;}.cls-3{fill:#8a8b8f;}</style></defs><g id="Camada_2" data-name="Camada 2"><g id="Camada_1-2" data-name="Camada 1"><path class="cls-1" d="M7.33,26.25l.15-1.06h4.93v7.32a6.64,6.64,0,0,1-2,.78,10.11,10.11,0,0,1-2.36.3,8.25,8.25,0,0,1-4.22-1.07,7.56,7.56,0,0,1-2.86-3,8.87,8.87,0,0,1-1-4.23,8.73,8.73,0,0,1,1.09-4.4,7.62,7.62,0,0,1,3-3,8.35,8.35,0,0,1,4.18-1.06,11.12,11.12,0,0,1,2.1.23,5.12,5.12,0,0,1,1.82.64l-.45,1.08a11.65,11.65,0,0,0-1.59-.52,8.28,8.28,0,0,0-1.84-.17A6.9,6.9,0,0,0,5,19a6.44,6.44,0,0,0-2.5,2.47,7.31,7.31,0,0,0-1,3.81A7.63,7.63,0,0,0,2.42,29a6,6,0,0,0,2.33,2.44,6.51,6.51,0,0,0,3.32.85A8.41,8.41,0,0,0,11,31.74v-5.5H7.33Z"/><path class="cls-1" d="M16,19.31a1.06,1.06,0,0,1-.8-.32,1.16,1.16,0,0,1,0-1.58,1.06,1.06,0,0,1,.8-.32,1.16,1.16,0,0,1,.8.32,1,1,0,0,1,.34.79,1.07,1.07,0,0,1-.34.79A1.16,1.16,0,0,1,16,19.31Zm-.73,14V21.81h1.49V33.27Z"/><path class="cls-1" d="M20,33.27V16.83l1.46-.23V33.27Z"/><path class="cls-1" d="M24.23,32.67l.47-1.08a7.26,7.26,0,0,0,3.14.8,4.45,4.45,0,0,0,2.29-.5A1.59,1.59,0,0,0,31,30.45c0-.91-1-1.73-3.12-2.45a9.23,9.23,0,0,1-2.67-1.32,2.4,2.4,0,0,1-1-2,2.75,2.75,0,0,1,1.14-2.33,5,5,0,0,1,3.06-.84,7.56,7.56,0,0,1,1.84.27,4.63,4.63,0,0,1,1.61.67l-.48,1a11.28,11.28,0,0,0-1.44-.59,5.21,5.21,0,0,0-1.58-.21,3.36,3.36,0,0,0-2,.54,1.47,1.47,0,0,0,0,2.6,10.15,10.15,0,0,0,2.18,1c2.55.9,3.83,2.07,3.83,3.54a2.76,2.76,0,0,1-1.19,2.37,5.54,5.54,0,0,1-3.34.86,8.78,8.78,0,0,1-1.88-.24A5.21,5.21,0,0,1,24.23,32.67Z"/><path class="cls-1" d="M44.07,30.68a5.09,5.09,0,0,1-2,2.13,5.72,5.72,0,0,1-3,.76,4.79,4.79,0,0,1-2.77-.78,4.88,4.88,0,0,1-1.78-2.16A7.66,7.66,0,0,1,34,27.48a7.09,7.09,0,0,1,.68-3.06,5.09,5.09,0,0,1,1.9-2.13,5.24,5.24,0,0,1,2.89-.78,4.91,4.91,0,0,1,3.92,1.61,6.63,6.63,0,0,1,1.39,4.47A6.72,6.72,0,0,1,44.07,30.68ZM42.19,31a5.36,5.36,0,0,0,1.08-3.4,5.84,5.84,0,0,0-1-3.54,3.33,3.33,0,0,0-2.86-1.34,3.49,3.49,0,0,0-2.89,1.32,5.44,5.44,0,0,0-1.07,3.4,5.84,5.84,0,0,0,1,3.54,3.34,3.34,0,0,0,2.85,1.34A3.46,3.46,0,0,0,42.19,31Z"/><path class="cls-1" d="M48.58,33.27H47.11V21.81h1.21l.23,1.75a6.14,6.14,0,0,1,2-1.45,5.11,5.11,0,0,1,2.29-.6,3.26,3.26,0,0,1,2.65,1,4.15,4.15,0,0,1,.87,2.76v7.93H54.86V25.59c0-1.89-.74-2.83-2.22-2.83a4.35,4.35,0,0,0-2.09.67,6.67,6.67,0,0,0-2,1.66v8.18Z"/><path class="cls-2" d="M75.79,17.75l-.48,1.08a13,13,0,0,0-1.57-.52,8.25,8.25,0,0,0-1.85-.17,5.29,5.29,0,0,0-3,.93,6.49,6.49,0,0,0-2.15,2.57,8.23,8.23,0,0,0-.79,3.66,8.78,8.78,0,0,0,.68,3.53,6,6,0,0,0,2,2.53,5.2,5.2,0,0,0,3.08.93,8.59,8.59,0,0,0,2-.19,9.32,9.32,0,0,0,1.57-.52l.56,1.13a7.23,7.23,0,0,1-1.85.61,10,10,0,0,1-2.21.26,6.8,6.8,0,0,1-6.53-4.13,10.23,10.23,0,0,1-.84-4.13A9.91,9.91,0,0,1,65.26,21a7.33,7.33,0,0,1,2.62-3,7,7,0,0,1,4-1.12,11.12,11.12,0,0,1,2.1.23A5.28,5.28,0,0,1,75.79,17.75Z"/><path class="cls-2" d="M87.3,30.68a5.11,5.11,0,0,1-2,2.13,5.66,5.66,0,0,1-3,.76,4.79,4.79,0,0,1-2.77-.78,4.9,4.9,0,0,1-1.79-2.16,7.83,7.83,0,0,1-.61-3.15,7.24,7.24,0,0,1,.69-3.06,5,5,0,0,1,1.9-2.13,5.24,5.24,0,0,1,2.89-.78,4.91,4.91,0,0,1,3.92,1.61A6.63,6.63,0,0,1,88,27.59,7,7,0,0,1,87.3,30.68ZM85.42,31a5.42,5.42,0,0,0,1.08-3.4,5.84,5.84,0,0,0-1-3.54,3.33,3.33,0,0,0-2.86-1.34,3.49,3.49,0,0,0-2.89,1.32,5.44,5.44,0,0,0-1.08,3.4,5.84,5.84,0,0,0,1,3.54,3.35,3.35,0,0,0,2.86,1.34A3.45,3.45,0,0,0,85.42,31Z"/><path class="cls-2" d="M90.58,33.27V16.83L92,16.6V33.27Z"/><path class="cls-2" d="M103.13,31.54l.48,1.06a5.89,5.89,0,0,1-1.75.7,7.92,7.92,0,0,1-1.87.27,5.25,5.25,0,0,1-2.86-.77,5,5,0,0,1-1.86-2.15,7.58,7.58,0,0,1-.63-3.18,6.68,6.68,0,0,1,.68-3.06,5.1,5.1,0,0,1,1.94-2.14,5.44,5.44,0,0,1,2.9-.77,7.93,7.93,0,0,1,1.82.28,6.16,6.16,0,0,1,1.75.71l-.48,1a8.92,8.92,0,0,0-1.47-.61,5.91,5.91,0,0,0-1.69-.19,3.49,3.49,0,0,0-2.89,1.32,5.44,5.44,0,0,0-1.08,3.4,5.8,5.8,0,0,0,1,3.54A3.34,3.34,0,0,0,100,32.34a6.05,6.05,0,0,0,1.69-.18A8.61,8.61,0,0,0,103.13,31.54Z"/><path class="cls-2" d="M114.55,22.55a4.1,4.1,0,0,1,.88,2.76v7.93H114V25.59c0-1.89-.74-2.83-2.22-2.83a4.35,4.35,0,0,0-2.09.67,6.67,6.67,0,0,0-2,1.66v8.17h-1.46V16.83l1.46-.23v6.94a6.06,6.06,0,0,1,2-1.45,5.27,5.27,0,0,1,2.28-.58A3.22,3.22,0,0,1,114.55,22.55Z"/><path class="cls-2" d="M127.79,30.68a5.11,5.11,0,0,1-2,2.13,5.66,5.66,0,0,1-3,.76,4.79,4.79,0,0,1-2.77-.78,4.9,4.9,0,0,1-1.79-2.16,7.83,7.83,0,0,1-.61-3.15,7.24,7.24,0,0,1,.69-3.06,5,5,0,0,1,1.9-2.13,5.24,5.24,0,0,1,2.89-.78,4.91,4.91,0,0,1,3.92,1.61,6.63,6.63,0,0,1,1.39,4.47A6.85,6.85,0,0,1,127.79,30.68Zm-1.87.34a5.41,5.41,0,0,0,1.07-3.4,5.84,5.84,0,0,0-1-3.54,3.31,3.31,0,0,0-2.85-1.34,3.52,3.52,0,0,0-2.9,1.32,5.44,5.44,0,0,0-1.07,3.4,5.84,5.84,0,0,0,1,3.54A3.34,3.34,0,0,0,123,32.34,3.47,3.47,0,0,0,125.92,31ZM124.7,17.53a.84.84,0,0,1-.59.24,1.51,1.51,0,0,1-1.13-.56,2.09,2.09,0,0,0-1.54-.54c-1.31,0-2,.71-2,2.15h1.06a1.17,1.17,0,0,1,.32-.78.82.82,0,0,1,.6-.26,1.85,1.85,0,0,1,1.22.56,2,2,0,0,0,1.42.57c1.32,0,2-.72,2-2.15H125A1.14,1.14,0,0,1,124.7,17.53Z"/><path class="cls-2" d="M140.11,27.62h-8.5a5.59,5.59,0,0,0,1,3.48,3.84,3.84,0,0,0,3.21,1.29,6.56,6.56,0,0,0,1.79-.25,8.87,8.87,0,0,0,1.8-.75l.49,1.09a10.38,10.38,0,0,1-1.9.82,7.26,7.26,0,0,1-2.11.27,5.5,5.5,0,0,1-4.34-1.65,6.43,6.43,0,0,1-1.47-4.44,6.73,6.73,0,0,1,1.38-4.32,4.64,4.64,0,0,1,3.81-1.65,4.12,4.12,0,0,1,3.61,1.66A7.45,7.45,0,0,1,140.11,27.62Zm-8.45-1h7c-.25-2.58-1.38-3.87-3.37-3.87a3.15,3.15,0,0,0-2.53,1.05A5,5,0,0,0,131.66,26.6Z"/><path class="cls-2" d="M141.9,32.67l.47-1.08a7.26,7.26,0,0,0,3.14.8,4.45,4.45,0,0,0,2.29-.5,1.57,1.57,0,0,0,.83-1.44c0-.91-1-1.73-3.11-2.45a9.3,9.3,0,0,1-2.68-1.32,2.42,2.42,0,0,1-1-2A2.74,2.74,0,0,1,143,22.34,5.06,5.06,0,0,1,146,21.5a7.63,7.63,0,0,1,1.84.27,4.57,4.57,0,0,1,1.6.67l-.47,1a12.6,12.6,0,0,0-1.44-.59,5.33,5.33,0,0,0-1.59-.21,3.4,3.4,0,0,0-2,.54,1.47,1.47,0,0,0,0,2.6,10,10,0,0,0,2.19,1c2.55.9,3.82,2.07,3.82,3.54a2.78,2.78,0,0,1-1.18,2.37,5.57,5.57,0,0,1-3.35.86,8.86,8.86,0,0,1-1.88-.24A5.09,5.09,0,0,1,141.9,32.67Z"/><path class="cls-1" d="M105,14.51a59.49,59.49,0,0,0-14.78-4.2c-1.27-.18-2.53-.4-3.81-.52s-2.54-.31-3.82-.35c-2.56-.2-5.12-.28-7.68-.27a93.41,93.41,0,0,0-15.3,1.22,65.68,65.68,0,0,0-14.83,4.12A47.76,47.76,0,0,1,59.33,9c1.28-.26,2.56-.52,3.85-.73l3.88-.52L71,7.47c1.3-.06,2.61-.07,3.92-.1A74.62,74.62,0,0,1,90.45,8.94,43.87,43.87,0,0,1,105,14.51Z"/><path class="cls-1" d="M99.37,10.23a48.53,48.53,0,0,0-12-3.41,78.63,78.63,0,0,0-12.45-.94,77.39,77.39,0,0,0-12.44,1,54.25,54.25,0,0,0-12.07,3.35A39.23,39.23,0,0,1,62.23,5.75c1-.2,2.08-.42,3.13-.59l3.16-.42,3.18-.23c1.06-.06,2.12-.06,3.19-.09A60.5,60.5,0,0,1,87.55,5.7,36.06,36.06,0,0,1,99.37,10.23Z"/><path class="cls-1" d="M96,7.12A41.62,41.62,0,0,0,85.62,4.18a67.65,67.65,0,0,0-10.73-.8,66.33,66.33,0,0,0-10.72.85A46.79,46.79,0,0,0,53.78,7.12,33.57,33.57,0,0,1,64,3.27c.9-.18,1.8-.36,2.7-.51L69.4,2.4l2.74-.21c.91,0,1.83,0,2.74-.08a53.35,53.35,0,0,1,10.91,1.1A31.56,31.56,0,0,1,96,7.12Z"/><path class="cls-1" d="M92.24,4.12A34,34,0,0,0,83.71,1.7,55.46,55.46,0,0,0,74.89,1a54.39,54.39,0,0,0-8.83.7A37.46,37.46,0,0,0,57.5,4.12,27.93,27.93,0,0,1,65.9.94a42.4,42.4,0,0,1,9-.94,43.71,43.71,0,0,1,9,.91A26,26,0,0,1,92.24,4.12Z"/><path class="cls-3" d="M15.72,45.58l-2-2.88v5H13.2v-6.2h.32l2.27,3.26L18,41.48h.37v6.2h-.57v-5l-1.92,2.9Z"/><path class="cls-3" d="M30.22,41.48l2.37,6.15-.55.09-.73-1.9H28.6l-.68,1.86h-.54l2.25-6.2Zm-.29.73-1.17,3.15h2.38Z"/><path class="cls-3" d="M44.41,45l.06-.41h1.9v2.83a3.15,3.15,0,0,1-.76.3,3.7,3.7,0,0,1-.91.11,3.16,3.16,0,0,1-1.63-.41A3,3,0,0,1,42,46.25a3.63,3.63,0,0,1,0-3.33,3,3,0,0,1,1.15-1.15,3.14,3.14,0,0,1,1.61-.41,3.69,3.69,0,0,1,.81.09,2,2,0,0,1,.7.24l-.17.42a6.1,6.1,0,0,0-.61-.2,3.48,3.48,0,0,0-.71-.06,2.64,2.64,0,0,0-1.26.34,2.5,2.5,0,0,0-1,.94,2.93,2.93,0,0,0-.37,1.48A2.88,2.88,0,0,0,42.52,46a2.33,2.33,0,0,0,.9.94,2.52,2.52,0,0,0,1.28.33,3.2,3.2,0,0,0,1.11-.21V45h-1.4Z"/><path class="cls-3" d="M55.36,47.68v-6.2h.37L59,46l.31.54v-5h.57v6.2h-.37l-3.44-4.84-.13-.26v5.1Z"/><path class="cls-3" d="M68.85,47.68v-6.2h3.28l.05.41H69.42V44.3H71.6l.05.41H69.42v2.51h2.91l.06.46Zm1.33-6.85.49-1.28h.65L70.55,41Z"/><path class="cls-3" d="M86.23,41.93H84.09v5.75h-.58V41.93H81.37v-.45h4.81Z"/><path class="cls-3" d="M95.22,47.68v-6.2h.56v6.2Z"/><path class="cls-3" d="M109.18,41.69l-.19.42a4.79,4.79,0,0,0-.61-.2,3.35,3.35,0,0,0-.71-.06,2,2,0,0,0-1.17.36,2.51,2.51,0,0,0-.83,1,3.24,3.24,0,0,0-.3,1.41,3.51,3.51,0,0,0,.26,1.36,2.25,2.25,0,0,0,.78,1,2,2,0,0,0,1.18.35A3.13,3.13,0,0,0,109,47l.22.44a2.77,2.77,0,0,1-.72.23,3.85,3.85,0,0,1-.86.1,2.56,2.56,0,0,1-2.51-1.59,3.8,3.8,0,0,1-.32-1.59,3.84,3.84,0,0,1,.35-1.65,3,3,0,0,1,1-1.18,2.66,2.66,0,0,1,1.52-.43,3.78,3.78,0,0,1,.82.09A2,2,0,0,1,109.18,41.69Z"/><path class="cls-3" d="M121.05,41.34a2.77,2.77,0,0,1,1.48.41,2.74,2.74,0,0,1,1,1.14,3.93,3.93,0,0,1,0,3.31,3,3,0,0,1-1,1.18,2.76,2.76,0,0,1-1.49.43,2.62,2.62,0,0,1-1.46-.41,2.7,2.7,0,0,1-1-1.13,3.58,3.58,0,0,1-.37-1.65,3.62,3.62,0,0,1,.38-1.66,2.87,2.87,0,0,1,1-1.17A2.77,2.77,0,0,1,121.05,41.34Zm-2.29,3.26A3.18,3.18,0,0,0,119,46a2.37,2.37,0,0,0,.79,1,1.91,1.91,0,0,0,1.14.34,2,2,0,0,0,1.19-.35,2.39,2.39,0,0,0,.82-1,3.55,3.55,0,0,0,0-2.81,2.26,2.26,0,0,0-.79-.95,2,2,0,0,0-1.14-.35,2.11,2.11,0,0,0-1.19.35,2.36,2.36,0,0,0-.82,1A3.21,3.21,0,0,0,118.76,44.6Z"/><path class="cls-3" d="M133,47.41l.14-.43a2.78,2.78,0,0,0,.69.24,3.12,3.12,0,0,0,.82.11,1.91,1.91,0,0,0,1.18-.31,1,1,0,0,0,.24-1.4,1.79,1.79,0,0,0-.54-.46,10,10,0,0,0-1-.46c-1.12-.47-1.68-1.09-1.68-1.85a1.27,1.27,0,0,1,.24-.76,1.71,1.71,0,0,1,.68-.55,2.31,2.31,0,0,1,1-.2,3.85,3.85,0,0,1,.83.1,3.19,3.19,0,0,1,.7.25l-.2.43a5.27,5.27,0,0,0-.61-.23,2.75,2.75,0,0,0-.7-.08,1.71,1.71,0,0,0-1,.28.92.92,0,0,0-.38.76.91.91,0,0,0,.19.59,1.85,1.85,0,0,0,.53.45,10.49,10.49,0,0,0,1,.51,6.61,6.61,0,0,1,1,.52,1.69,1.69,0,0,1,.52.55,1.49,1.49,0,0,1,.19.75,1.37,1.37,0,0,1-.26.81,1.62,1.62,0,0,1-.75.56,2.81,2.81,0,0,1-1.13.21,4.15,4.15,0,0,1-.88-.11A3.31,3.31,0,0,1,133,47.41Z"/></g></g></svg>